Exact Audio Copy V0.99 prebeta 1 from 25. May 2007

EAC 抓取日志文件从1. 一月 2011, 1:43

胡松华 / 20世纪中华歌坛名人百集珍藏版

使用驱动器  ：PIONEER DVD-RW  DVR-115   Adapter: 0  ID: 0

读取模式     : 保护
使用精确流   : 是
废除音频缓冲 : 是
使用 C2 指针 : 否

组合读/写偏移校正              : 48
读取 Lead-In 和 Lead-Out       : 否
用静音填充抓取中丢失偏移的采样 : 是
去除首尾静音块                 : 否
已用接口                       : Win NT 及 2000 本地 Win32 接口

所用输出格式 : 内部 WAV 函数
样本格式     : 44.100 Hz;16 Bit;立体声
使用压缩偏移 : 48


被抓轨 CD 的 TOC

     音轨 |   开始   |   长度   | 起始扇区 | 结尾扇区 
    --------------------------------------------------
       1  |  0:00.32 |  5:00.73 |      32  |   22604  
       2  |  5:01.30 |  1:56.10 |   22605  |   31314  
       3  |  6:57.40 |  5:09.70 |   31315  |   54559  
       4  | 12:07.35 |  2:57.70 |   54560  |   67904  
       5  | 15:05.30 |  3:54.12 |   67905  |   85466  
       6  | 18:59.42 |  2:49.70 |   85467  |   98211  
       7  | 21:49.37 |  2:25.68 |   98212  |  109154  
       8  | 24:15.30 |  3:36.50 |  109155  |  125404  
       9  | 27:52.05 |  4:20.27 |  125405  |  144931  
      10  | 32:12.32 |  4:23.60 |  144932  |  164716  
      11  | 36:36.17 |  2:56.25 |  164717  |  177941  
      12  | 39:32.42 |  4:11.68 |  177942  |  196834  
      13  | 43:44.35 |  3:12.07 |  196835  |  211241  
      14  | 46:56.42 |  2:14.00 |  211242  |  221291  
      15  | 49:10.42 |  2:51.65 |  221292  |  234181  
      16  | 52:02.32 |  2:12.03 |  234182  |  244084  
      17  | 54:14.35 |  5:06.12 |  244085  |  267046  


范围状态及错误

已选择范围

     文件名 E:\文件夹\20世纪中华歌坛名人百集珍藏版-胡松华[lwg188原创]\胡松华 - 20世纪中华歌坛名人百集珍藏版.wav

     峰值电平 100.0 %
     范围质量 100.0 %
     复制 CRC AD60B267
     复制成功

没有错误发生

状态报告结尾
